<mxfile host="Electron" agent="Mozilla/5.0 (Windows NT 10.0; Win64; x64) AppleWebKit/537.36 (KHTML, like Gecko) draw.io/26.2.15 Chrome/134.0.6998.205 Electron/35.2.1 Safari/537.36" version="26.2.15">
  <diagram name="Page-1" id="2YBvvXClWsGukQMizWep">
    <mxGraphModel dx="771" dy="1988" grid="1" gridSize="10" guides="1" tooltips="1" connect="1" arrows="1" fold="1" page="1" pageScale="1" pageWidth="850" pageHeight="1100" math="0" shadow="0">
      <root>
        <mxCell id="0" />
        <mxCell id="1" parent="0" />
        <mxCell id="vn2kPDJeqpM3JR5kkhpo-1" value="&lt;strong data-end=&quot;1178&quot; data-start=&quot;1161&quot;&gt;:AddFriendsPopup&lt;/strong&gt;" style="shape=umlLifeline;perimeter=lifelinePerimeter;whiteSpace=wrap;html=1;container=1;dropTarget=0;collapsible=0;recursiveResize=0;outlineConnect=0;portConstraint=eastwest;newEdgeStyle={&quot;curved&quot;:0,&quot;rounded&quot;:0};fillColor=#dae8fc;strokeColor=#6c8ebf;" parent="1" vertex="1">
          <mxGeometry x="350" y="50" width="100" height="710" as="geometry" />
        </mxCell>
        <mxCell id="vn2kPDJeqpM3JR5kkhpo-2" value="" style="html=1;points=[[0,0,0,0,5],[0,1,0,0,-5],[1,0,0,0,5],[1,1,0,0,-5]];perimeter=orthogonalPerimeter;outlineConnect=0;targetShapes=umlLifeline;portConstraint=eastwest;newEdgeStyle={&quot;curved&quot;:0,&quot;rounded&quot;:0};" parent="vn2kPDJeqpM3JR5kkhpo-1" vertex="1">
          <mxGeometry x="45" y="80" width="10" height="600" as="geometry" />
        </mxCell>
        <mxCell id="vn2kPDJeqpM3JR5kkhpo-4" value="&lt;strong data-end=&quot;1247&quot; data-start=&quot;1226&quot;&gt;:FriendsController&lt;/strong&gt;" style="shape=umlLifeline;perimeter=lifelinePerimeter;whiteSpace=wrap;html=1;container=1;dropTarget=0;collapsible=0;recursiveResize=0;outlineConnect=0;portConstraint=eastwest;newEdgeStyle={&quot;curved&quot;:0,&quot;rounded&quot;:0};fillColor=#d5e8d4;strokeColor=#82b366;" parent="1" vertex="1">
          <mxGeometry x="570" y="50" width="110" height="700" as="geometry" />
        </mxCell>
        <mxCell id="vn2kPDJeqpM3JR5kkhpo-6" value="&lt;strong data-end=&quot;1363&quot; data-start=&quot;1348&quot;&gt;:Database&lt;/strong&gt;&lt;div&gt;&lt;strong data-end=&quot;1363&quot; data-start=&quot;1348&quot;&gt;for friend list&lt;/strong&gt;&lt;/div&gt;" style="shape=umlLifeline;perimeter=lifelinePerimeter;whiteSpace=wrap;html=1;container=1;dropTarget=0;collapsible=0;recursiveResize=0;outlineConnect=0;portConstraint=eastwest;newEdgeStyle={&quot;curved&quot;:0,&quot;rounded&quot;:0};fillColor=#ffe6cc;strokeColor=#d79b00;" parent="1" vertex="1">
          <mxGeometry x="1070" y="40" width="100" height="700" as="geometry" />
        </mxCell>
        <mxCell id="vn2kPDJeqpM3JR5kkhpo-8" value="&lt;b&gt;:Database&lt;/b&gt;&lt;div&gt;&lt;b&gt;for user info&lt;/b&gt;&lt;/div&gt;" style="shape=umlLifeline;perimeter=lifelinePerimeter;whiteSpace=wrap;html=1;container=1;dropTarget=0;collapsible=0;recursiveResize=0;outlineConnect=0;portConstraint=eastwest;newEdgeStyle={&quot;curved&quot;:0,&quot;rounded&quot;:0};fillColor=#ffe6cc;strokeColor=#d79b00;" parent="1" vertex="1">
          <mxGeometry x="900" y="40" width="100" height="700" as="geometry" />
        </mxCell>
        <mxCell id="vn2kPDJeqpM3JR5kkhpo-9" value="" style="html=1;points=[[0,0,0,0,5],[0,1,0,0,-5],[1,0,0,0,5],[1,1,0,0,-5]];perimeter=orthogonalPerimeter;outlineConnect=0;targetShapes=umlLifeline;portConstraint=eastwest;newEdgeStyle={&quot;curved&quot;:0,&quot;rounded&quot;:0};" parent="vn2kPDJeqpM3JR5kkhpo-8" vertex="1">
          <mxGeometry x="45" y="210" width="10" height="110" as="geometry" />
        </mxCell>
        <mxCell id="vn2kPDJeqpM3JR5kkhpo-10" value="Button&lt;br&gt;to Add Friend" style="html=1;verticalAlign=bottom;startArrow=oval;startFill=1;endArrow=block;startSize=8;curved=0;rounded=0;" parent="1" edge="1">
          <mxGeometry x="0.0027" width="60" relative="1" as="geometry">
            <mxPoint x="230" y="150" as="sourcePoint" />
            <mxPoint x="390" y="150" as="targetPoint" />
            <mxPoint as="offset" />
          </mxGeometry>
        </mxCell>
        <mxCell id="vn2kPDJeqpM3JR5kkhpo-11" value="addFriend(phoneOrUsername)" style="html=1;verticalAlign=bottom;startArrow=oval;startFill=1;endArrow=block;startSize=8;curved=0;rounded=0;" parent="1" edge="1">
          <mxGeometry x="0.001" width="60" relative="1" as="geometry">
            <mxPoint x="410" y="180" as="sourcePoint" />
            <mxPoint x="620" y="180" as="targetPoint" />
            <mxPoint as="offset" />
          </mxGeometry>
        </mxCell>
        <mxCell id="vn2kPDJeqpM3JR5kkhpo-14" value="addFriend(userId)" style="html=1;verticalAlign=bottom;startArrow=oval;startFill=1;endArrow=block;startSize=8;curved=0;rounded=0;" parent="1" edge="1">
          <mxGeometry x="NaN" y="223" width="60" relative="1" as="geometry">
            <mxPoint x="1059.4473684210525" y="468.00000000000045" as="sourcePoint" />
            <mxPoint x="1059.4473684210525" y="468.00000000000045" as="targetPoint" />
            <mxPoint x="-209" y="-78" as="offset" />
          </mxGeometry>
        </mxCell>
        <mxCell id="vn2kPDJeqpM3JR5kkhpo-17" value="getAll()" style="html=1;verticalAlign=bottom;endArrow=open;dashed=1;endSize=8;curved=0;rounded=0;" parent="1" target="vn2kPDJeqpM3JR5kkhpo-5" edge="1">
          <mxGeometry x="0.1626" y="-10" relative="1" as="geometry">
            <mxPoint x="1120" y="520" as="sourcePoint" />
            <mxPoint x="620.0866666666666" y="520" as="targetPoint" />
            <mxPoint as="offset" />
            <Array as="points">
              <mxPoint x="820" y="520" />
            </Array>
          </mxGeometry>
        </mxCell>
        <mxCell id="vn2kPDJeqpM3JR5kkhpo-21" value="&lt;strong data-end=&quot;1178&quot; data-start=&quot;1161&quot;&gt;:FoodSearchScreen&lt;/strong&gt;" style="shape=umlLifeline;perimeter=lifelinePerimeter;whiteSpace=wrap;html=1;container=1;dropTarget=0;collapsible=0;recursiveResize=0;outlineConnect=0;portConstraint=eastwest;newEdgeStyle={&quot;curved&quot;:0,&quot;rounded&quot;:0};fillColor=#dae8fc;strokeColor=#6c8ebf;" parent="1" vertex="1">
          <mxGeometry x="330" y="1120" width="130" height="800" as="geometry" />
        </mxCell>
        <mxCell id="vn2kPDJeqpM3JR5kkhpo-22" value="" style="html=1;points=[[0,0,0,0,5],[0,1,0,0,-5],[1,0,0,0,5],[1,1,0,0,-5]];perimeter=orthogonalPerimeter;outlineConnect=0;targetShapes=umlLifeline;portConstraint=eastwest;newEdgeStyle={&quot;curved&quot;:0,&quot;rounded&quot;:0};" parent="vn2kPDJeqpM3JR5kkhpo-21" vertex="1">
          <mxGeometry x="60" y="90" width="10" height="670" as="geometry" />
        </mxCell>
        <mxCell id="vn2kPDJeqpM3JR5kkhpo-23" value="&lt;strong data-end=&quot;1178&quot; data-start=&quot;1161&quot;&gt;:FoodSearchController&lt;/strong&gt;" style="shape=umlLifeline;perimeter=lifelinePerimeter;whiteSpace=wrap;html=1;container=1;dropTarget=0;collapsible=0;recursiveResize=0;outlineConnect=0;portConstraint=eastwest;newEdgeStyle={&quot;curved&quot;:0,&quot;rounded&quot;:0};fillColor=#d5e8d4;strokeColor=#82b366;" parent="1" vertex="1">
          <mxGeometry x="530" y="1120" width="140" height="800" as="geometry" />
        </mxCell>
        <mxCell id="vn2kPDJeqpM3JR5kkhpo-24" value="" style="html=1;points=[[0,0,0,0,5],[0,1,0,0,-5],[1,0,0,0,5],[1,1,0,0,-5]];perimeter=orthogonalPerimeter;outlineConnect=0;targetShapes=umlLifeline;portConstraint=eastwest;newEdgeStyle={&quot;curved&quot;:0,&quot;rounded&quot;:0};" parent="vn2kPDJeqpM3JR5kkhpo-23" vertex="1">
          <mxGeometry x="65" y="110" width="10" height="650" as="geometry" />
        </mxCell>
        <mxCell id="vn2kPDJeqpM3JR5kkhpo-25" value="&lt;strong data-end=&quot;1178&quot; data-start=&quot;1161&quot;&gt;:Database&lt;/strong&gt;&lt;div&gt;&lt;strong data-end=&quot;1178&quot; data-start=&quot;1161&quot;&gt;for dishes&lt;/strong&gt;&lt;/div&gt;" style="shape=umlLifeline;perimeter=lifelinePerimeter;whiteSpace=wrap;html=1;container=1;dropTarget=0;collapsible=0;recursiveResize=0;outlineConnect=0;portConstraint=eastwest;newEdgeStyle={&quot;curved&quot;:0,&quot;rounded&quot;:0};fillColor=#ffe6cc;strokeColor=#d79b00;" parent="1" vertex="1">
          <mxGeometry x="750" y="1120" width="140" height="720" as="geometry" />
        </mxCell>
        <mxCell id="vn2kPDJeqpM3JR5kkhpo-26" value="" style="html=1;points=[[0,0,0,0,5],[0,1,0,0,-5],[1,0,0,0,5],[1,1,0,0,-5]];perimeter=orthogonalPerimeter;outlineConnect=0;targetShapes=umlLifeline;portConstraint=eastwest;newEdgeStyle={&quot;curved&quot;:0,&quot;rounded&quot;:0};" parent="vn2kPDJeqpM3JR5kkhpo-25" vertex="1">
          <mxGeometry x="65" y="140" width="10" height="110" as="geometry" />
        </mxCell>
        <mxCell id="vn2kPDJeqpM3JR5kkhpo-27" value="Button&lt;br&gt;to searchFood" style="html=1;verticalAlign=bottom;startArrow=oval;startFill=1;endArrow=block;startSize=8;curved=0;rounded=0;" parent="1" edge="1">
          <mxGeometry x="0.0048" width="60" relative="1" as="geometry">
            <mxPoint x="220" y="1220" as="sourcePoint" />
            <mxPoint x="390" y="1220" as="targetPoint" />
            <mxPoint as="offset" />
          </mxGeometry>
        </mxCell>
        <mxCell id="vn2kPDJeqpM3JR5kkhpo-28" value="search(keyword, sortOption)" style="html=1;verticalAlign=bottom;startArrow=oval;startFill=1;endArrow=block;startSize=8;curved=0;rounded=0;" parent="1" edge="1">
          <mxGeometry width="60" relative="1" as="geometry">
            <mxPoint x="394.6666666666665" y="1240" as="sourcePoint" />
            <mxPoint x="599.5" y="1240" as="targetPoint" />
          </mxGeometry>
        </mxCell>
        <mxCell id="vn2kPDJeqpM3JR5kkhpo-29" value="findByKeyword(keyword)" style="html=1;verticalAlign=bottom;startArrow=oval;startFill=1;endArrow=block;startSize=8;curved=0;rounded=0;" parent="1" edge="1">
          <mxGeometry width="60" relative="1" as="geometry">
            <mxPoint x="605" y="1272" as="sourcePoint" />
            <mxPoint x="815" y="1272" as="targetPoint" />
          </mxGeometry>
        </mxCell>
        <mxCell id="vn2kPDJeqpM3JR5kkhpo-30" value="GetDishes()" style="html=1;verticalAlign=bottom;endArrow=open;dashed=1;endSize=8;curved=0;rounded=0;" parent="1" edge="1">
          <mxGeometry relative="1" as="geometry">
            <mxPoint x="815" y="1339" as="sourcePoint" />
            <mxPoint x="605" y="1339" as="targetPoint" />
          </mxGeometry>
        </mxCell>
        <mxCell id="vn2kPDJeqpM3JR5kkhpo-31" value="&lt;strong data-end=&quot;1178&quot; data-start=&quot;1161&quot;&gt;:Database&lt;/strong&gt;&lt;div&gt;&lt;strong data-end=&quot;1178&quot; data-start=&quot;1161&quot;&gt;for recipes&lt;/strong&gt;&lt;/div&gt;" style="shape=umlLifeline;perimeter=lifelinePerimeter;whiteSpace=wrap;html=1;container=1;dropTarget=0;collapsible=0;recursiveResize=0;outlineConnect=0;portConstraint=eastwest;newEdgeStyle={&quot;curved&quot;:0,&quot;rounded&quot;:0};fillColor=#ffe6cc;strokeColor=#d79b00;" parent="1" vertex="1">
          <mxGeometry x="950" y="1120" width="140" height="720" as="geometry" />
        </mxCell>
        <mxCell id="vn2kPDJeqpM3JR5kkhpo-32" value="" style="html=1;points=[[0,0,0,0,5],[0,1,0,0,-5],[1,0,0,0,5],[1,1,0,0,-5]];perimeter=orthogonalPerimeter;outlineConnect=0;targetShapes=umlLifeline;portConstraint=eastwest;newEdgeStyle={&quot;curved&quot;:0,&quot;rounded&quot;:0};" parent="vn2kPDJeqpM3JR5kkhpo-31" vertex="1">
          <mxGeometry x="65" y="310" width="10" height="100" as="geometry" />
        </mxCell>
        <mxCell id="vn2kPDJeqpM3JR5kkhpo-33" value="findByDishIds(dishIds)" style="html=1;verticalAlign=bottom;startArrow=oval;startFill=1;endArrow=block;startSize=8;curved=0;rounded=0;" parent="1" source="vn2kPDJeqpM3JR5kkhpo-24" edge="1">
          <mxGeometry width="60" relative="1" as="geometry">
            <mxPoint x="610" y="1440" as="sourcePoint" />
            <mxPoint x="1019.5" y="1440" as="targetPoint" />
          </mxGeometry>
        </mxCell>
        <mxCell id="vn2kPDJeqpM3JR5kkhpo-34" value="GetRecipes()" style="html=1;verticalAlign=bottom;endArrow=open;dashed=1;endSize=8;curved=0;rounded=0;" parent="1" edge="1">
          <mxGeometry relative="1" as="geometry">
            <mxPoint x="1015" y="1499" as="sourcePoint" />
            <mxPoint x="605" y="1499" as="targetPoint" />
          </mxGeometry>
        </mxCell>
        <mxCell id="vn2kPDJeqpM3JR5kkhpo-35" value="&lt;strong data-end=&quot;1178&quot; data-start=&quot;1161&quot;&gt;:SortHelper&lt;/strong&gt;" style="shape=umlLifeline;perimeter=lifelinePerimeter;whiteSpace=wrap;html=1;container=1;dropTarget=0;collapsible=0;recursiveResize=0;outlineConnect=0;portConstraint=eastwest;newEdgeStyle={&quot;curved&quot;:0,&quot;rounded&quot;:0};fillColor=#d5e8d4;strokeColor=#82b366;" parent="1" vertex="1">
          <mxGeometry x="1150" y="1120" width="140" height="720" as="geometry" />
        </mxCell>
        <mxCell id="vn2kPDJeqpM3JR5kkhpo-36" value="sort(results, strategy)" style="html=1;verticalAlign=bottom;startArrow=oval;startFill=1;endArrow=block;startSize=8;curved=0;rounded=0;" parent="1" source="vn2kPDJeqpM3JR5kkhpo-24" edge="1">
          <mxGeometry width="60" relative="1" as="geometry">
            <mxPoint x="630" y="1600" as="sourcePoint" />
            <mxPoint x="1210" y="1600" as="targetPoint" />
          </mxGeometry>
        </mxCell>
        <mxCell id="vn2kPDJeqpM3JR5kkhpo-37" value="sortedResults" style="html=1;verticalAlign=bottom;endArrow=open;dashed=1;endSize=8;curved=0;rounded=0;" parent="1" edge="1">
          <mxGeometry x="-0.0003" relative="1" as="geometry">
            <mxPoint x="1215" y="1668" as="sourcePoint" />
            <mxPoint x="605" y="1668" as="targetPoint" />
            <mxPoint as="offset" />
          </mxGeometry>
        </mxCell>
        <mxCell id="vn2kPDJeqpM3JR5kkhpo-38" value="display(sortedResults)" style="html=1;verticalAlign=bottom;startArrow=oval;startFill=1;endArrow=block;startSize=8;curved=0;rounded=0;" parent="1" edge="1">
          <mxGeometry width="60" relative="1" as="geometry">
            <mxPoint x="595" y="1768" as="sourcePoint" />
            <mxPoint x="394.4473684210525" y="1768" as="targetPoint" />
          </mxGeometry>
        </mxCell>
        <mxCell id="vn2kPDJeqpM3JR5kkhpo-42" value="" style="shape=umlLifeline;perimeter=lifelinePerimeter;whiteSpace=wrap;html=1;container=1;dropTarget=0;collapsible=0;recursiveResize=0;outlineConnect=0;portConstraint=eastwest;newEdgeStyle={&quot;curved&quot;:0,&quot;rounded&quot;:0};participant=umlActor;" parent="1" vertex="1">
          <mxGeometry x="210" y="50" width="20" height="710" as="geometry" />
        </mxCell>
        <mxCell id="vn2kPDJeqpM3JR5kkhpo-43" value="" style="html=1;points=[[0,0,0,0,5],[0,1,0,0,-5],[1,0,0,0,5],[1,1,0,0,-5]];perimeter=orthogonalPerimeter;outlineConnect=0;targetShapes=umlLifeline;portConstraint=eastwest;newEdgeStyle={&quot;curved&quot;:0,&quot;rounded&quot;:0};" parent="vn2kPDJeqpM3JR5kkhpo-42" vertex="1">
          <mxGeometry x="5" y="80" width="10" height="610" as="geometry" />
        </mxCell>
        <mxCell id="vn2kPDJeqpM3JR5kkhpo-44" value="&lt;span style=&quot;text-wrap-mode: nowrap;&quot;&gt;RestCustomer&lt;/span&gt;" style="text;html=1;align=center;verticalAlign=middle;whiteSpace=wrap;rounded=0;" parent="1" vertex="1">
          <mxGeometry x="190" y="80" width="60" height="30" as="geometry" />
        </mxCell>
        <mxCell id="vn2kPDJeqpM3JR5kkhpo-45" value="" style="shape=umlLifeline;perimeter=lifelinePerimeter;whiteSpace=wrap;html=1;container=1;dropTarget=0;collapsible=0;recursiveResize=0;outlineConnect=0;portConstraint=eastwest;newEdgeStyle={&quot;curved&quot;:0,&quot;rounded&quot;:0};participant=umlActor;" parent="1" vertex="1">
          <mxGeometry x="210" y="1120" width="20" height="800" as="geometry" />
        </mxCell>
        <mxCell id="vn2kPDJeqpM3JR5kkhpo-46" value="" style="html=1;points=[[0,0,0,0,5],[0,1,0,0,-5],[1,0,0,0,5],[1,1,0,0,-5]];perimeter=orthogonalPerimeter;outlineConnect=0;targetShapes=umlLifeline;portConstraint=eastwest;newEdgeStyle={&quot;curved&quot;:0,&quot;rounded&quot;:0};" parent="vn2kPDJeqpM3JR5kkhpo-45" vertex="1">
          <mxGeometry x="5" y="80" width="10" height="680" as="geometry" />
        </mxCell>
        <mxCell id="vn2kPDJeqpM3JR5kkhpo-49" value="&lt;span style=&quot;text-wrap-mode: nowrap;&quot;&gt;RestCustomer&lt;/span&gt;" style="text;html=1;align=center;verticalAlign=middle;whiteSpace=wrap;rounded=0;" parent="1" vertex="1">
          <mxGeometry x="180" y="1150" width="60" height="30" as="geometry" />
        </mxCell>
        <mxCell id="vn2kPDJeqpM3JR5kkhpo-50" value="" style="html=1;points=[[0,0,0,0,5],[0,1,0,0,-5],[1,0,0,0,5],[1,1,0,0,-5]];perimeter=orthogonalPerimeter;outlineConnect=0;targetShapes=umlLifeline;portConstraint=eastwest;newEdgeStyle={&quot;curved&quot;:0,&quot;rounded&quot;:0};" parent="1" vertex="1">
          <mxGeometry x="1215" y="1590" width="10" height="100" as="geometry" />
        </mxCell>
        <mxCell id="KVvk2E3VvdTpPK_yIqQc-1" value="Alternative" style="shape=umlFrame;whiteSpace=wrap;html=1;pointerEvents=0;recursiveResize=0;container=1;collapsible=0;width=170;" parent="1" vertex="1">
          <mxGeometry x="20" y="160" width="1220" height="610" as="geometry" />
        </mxCell>
        <mxCell id="KVvk2E3VvdTpPK_yIqQc-2" value="User Not Null" style="text;html=1;" parent="KVvk2E3VvdTpPK_yIqQc-1" vertex="1">
          <mxGeometry width="100" height="20" relative="1" as="geometry">
            <mxPoint x="20" y="40" as="offset" />
          </mxGeometry>
        </mxCell>
        <mxCell id="KVvk2E3VvdTpPK_yIqQc-3" value="User Is Null" style="line;strokeWidth=1;dashed=1;labelPosition=center;verticalLabelPosition=bottom;align=left;verticalAlign=top;spacingLeft=20;spacingTop=15;html=1;whiteSpace=wrap;" parent="KVvk2E3VvdTpPK_yIqQc-1" vertex="1">
          <mxGeometry y="481" width="1220" height="10" as="geometry" />
        </mxCell>
        <mxCell id="vn2kPDJeqpM3JR5kkhpo-5" value="" style="html=1;points=[[0,0,0,0,5],[0,1,0,0,-5],[1,0,0,0,5],[1,1,0,0,-5]];perimeter=orthogonalPerimeter;outlineConnect=0;targetShapes=umlLifeline;portConstraint=eastwest;newEdgeStyle={&quot;curved&quot;:0,&quot;rounded&quot;:0};" parent="KVvk2E3VvdTpPK_yIqQc-1" vertex="1">
          <mxGeometry x="600" y="-10" width="10" height="580" as="geometry" />
        </mxCell>
        <mxCell id="3mzseKC1MjaG1VJGfsOA-1" value="Alternative" style="shape=umlFrame;whiteSpace=wrap;html=1;pointerEvents=0;recursiveResize=0;container=1;collapsible=0;width=170;" parent="KVvk2E3VvdTpPK_yIqQc-1" vertex="1">
          <mxGeometry x="110" y="160" width="1110" height="330" as="geometry" />
        </mxCell>
        <mxCell id="3mzseKC1MjaG1VJGfsOA-2" value="Friend NOT found" style="text;html=1;" parent="3mzseKC1MjaG1VJGfsOA-1" vertex="1">
          <mxGeometry width="100" height="20" relative="1" as="geometry">
            <mxPoint x="20" y="40" as="offset" />
          </mxGeometry>
        </mxCell>
        <mxCell id="3mzseKC1MjaG1VJGfsOA-3" value="Friend found" style="line;strokeWidth=1;dashed=1;labelPosition=center;verticalLabelPosition=bottom;align=left;verticalAlign=top;spacingLeft=20;spacingTop=15;html=1;whiteSpace=wrap;" parent="3mzseKC1MjaG1VJGfsOA-1" vertex="1">
          <mxGeometry y="79" width="1100" height="10" as="geometry" />
        </mxCell>
        <mxCell id="3mzseKC1MjaG1VJGfsOA-9" value="displayFriends(list)" style="text;html=1;align=center;verticalAlign=middle;resizable=0;points=[];autosize=1;strokeColor=none;fillColor=none;" parent="3mzseKC1MjaG1VJGfsOA-1" vertex="1">
          <mxGeometry x="500" y="230" width="120" height="30" as="geometry" />
        </mxCell>
        <mxCell id="vn2kPDJeqpM3JR5kkhpo-48" value="" style="html=1;points=[[0,0,0,0,5],[0,1,0,0,-5],[1,0,0,0,5],[1,1,0,0,-5]];perimeter=orthogonalPerimeter;outlineConnect=0;targetShapes=umlLifeline;portConstraint=eastwest;newEdgeStyle={&quot;curved&quot;:0,&quot;rounded&quot;:0};" parent="3mzseKC1MjaG1VJGfsOA-1" vertex="1">
          <mxGeometry x="990" y="89" width="10" height="180" as="geometry" />
        </mxCell>
        <mxCell id="el6UBPlnHFDRlVmJdhHZ-10" value="" style="html=1;verticalAlign=bottom;endArrow=open;dashed=1;endSize=8;curved=0;rounded=0;" edge="1" parent="3mzseKC1MjaG1VJGfsOA-1">
          <mxGeometry relative="1" as="geometry">
            <mxPoint x="624.75" y="260" as="sourcePoint" />
            <mxPoint x="495.25" y="260" as="targetPoint" />
          </mxGeometry>
        </mxCell>
        <mxCell id="el6UBPlnHFDRlVmJdhHZ-14" value="Friend not found" style="html=1;verticalAlign=bottom;endArrow=block;curved=0;rounded=0;" edge="1" parent="3mzseKC1MjaG1VJGfsOA-1" target="vn2kPDJeqpM3JR5kkhpo-5">
          <mxGeometry width="80" relative="1" as="geometry">
            <mxPoint x="500" y="30" as="sourcePoint" />
            <mxPoint x="590" y="40" as="targetPoint" />
            <Array as="points">
              <mxPoint x="540" y="30" />
              <mxPoint x="540" y="60" />
            </Array>
          </mxGeometry>
        </mxCell>
        <mxCell id="el6UBPlnHFDRlVmJdhHZ-15" value="Friend added" style="html=1;verticalAlign=bottom;endArrow=block;curved=0;rounded=0;elbow=vertical;" edge="1" parent="3mzseKC1MjaG1VJGfsOA-1">
          <mxGeometry width="80" relative="1" as="geometry">
            <mxPoint x="500" y="150" as="sourcePoint" />
            <mxPoint x="510" y="190" as="targetPoint" />
            <Array as="points">
              <mxPoint x="540" y="150" />
              <mxPoint x="540" y="190" />
            </Array>
          </mxGeometry>
        </mxCell>
        <mxCell id="3mzseKC1MjaG1VJGfsOA-7" value="" style="html=1;verticalAlign=bottom;endArrow=open;dashed=1;endSize=8;curved=0;rounded=0;" parent="KVvk2E3VvdTpPK_yIqQc-1" target="vn2kPDJeqpM3JR5kkhpo-2" edge="1">
          <mxGeometry x="0.0004" relative="1" as="geometry">
            <mxPoint x="600" y="539" as="sourcePoint" />
            <mxPoint x="400" y="539" as="targetPoint" />
            <mxPoint as="offset" />
          </mxGeometry>
        </mxCell>
        <mxCell id="3mzseKC1MjaG1VJGfsOA-6" value="showError(&quot;No such user&quot;)" style="text;html=1;align=center;verticalAlign=middle;resizable=0;points=[];autosize=1;strokeColor=none;fillColor=none;" parent="KVvk2E3VvdTpPK_yIqQc-1" vertex="1">
          <mxGeometry x="440" y="510" width="170" height="30" as="geometry" />
        </mxCell>
        <mxCell id="vn2kPDJeqpM3JR5kkhpo-47" value="" style="html=1;verticalAlign=bottom;startArrow=oval;startFill=1;endArrow=block;startSize=8;curved=0;rounded=0;exitX=1;exitY=0.443;exitDx=0;exitDy=0;exitPerimeter=0;" parent="KVvk2E3VvdTpPK_yIqQc-1" source="vn2kPDJeqpM3JR5kkhpo-5" target="vn2kPDJeqpM3JR5kkhpo-48" edge="1">
          <mxGeometry width="60" relative="1" as="geometry">
            <mxPoint x="620" y="247" as="sourcePoint" />
            <mxPoint x="1020" y="247" as="targetPoint" />
          </mxGeometry>
        </mxCell>
        <mxCell id="vn2kPDJeqpM3JR5kkhpo-12" value="validateFriend(phoneNumber)" style="html=1;verticalAlign=bottom;startArrow=oval;startFill=1;endArrow=block;startSize=8;curved=0;rounded=0;" parent="KVvk2E3VvdTpPK_yIqQc-1" edge="1">
          <mxGeometry x="0.4603" y="20" width="60" relative="1" as="geometry">
            <mxPoint x="610" y="100" as="sourcePoint" />
            <mxPoint x="925" y="100" as="targetPoint" />
            <mxPoint x="1" as="offset" />
          </mxGeometry>
        </mxCell>
        <mxCell id="el6UBPlnHFDRlVmJdhHZ-7" value="Button to view friends" style="html=1;verticalAlign=bottom;endArrow=block;curved=0;rounded=0;" edge="1" parent="KVvk2E3VvdTpPK_yIqQc-1">
          <mxGeometry width="80" relative="1" as="geometry">
            <mxPoint x="205" y="50" as="sourcePoint" />
            <mxPoint x="739.5" y="50" as="targetPoint" />
          </mxGeometry>
        </mxCell>
        <mxCell id="el6UBPlnHFDRlVmJdhHZ-8" value="searchByQuery(query)" style="html=1;verticalAlign=bottom;startArrow=oval;startFill=1;endArrow=block;startSize=8;curved=0;rounded=0;" edge="1" parent="KVvk2E3VvdTpPK_yIqQc-1">
          <mxGeometry x="0.4603" width="60" relative="1" as="geometry">
            <mxPoint x="610" y="120" as="sourcePoint" />
            <mxPoint x="925" y="120" as="targetPoint" />
            <mxPoint x="1" as="offset" />
          </mxGeometry>
        </mxCell>
        <mxCell id="el6UBPlnHFDRlVmJdhHZ-13" value="Already friends" style="html=1;verticalAlign=bottom;endArrow=block;curved=0;rounded=0;elbow=vertical;" edge="1" parent="KVvk2E3VvdTpPK_yIqQc-1" source="vn2kPDJeqpM3JR5kkhpo-5" target="vn2kPDJeqpM3JR5kkhpo-5">
          <mxGeometry width="80" relative="1" as="geometry">
            <mxPoint x="625" y="290" as="sourcePoint" />
            <mxPoint x="705" y="290" as="targetPoint" />
            <Array as="points">
              <mxPoint x="640" y="300" />
            </Array>
          </mxGeometry>
        </mxCell>
        <mxCell id="KVvk2E3VvdTpPK_yIqQc-4" value="Reviewed and edited by Kostas." style="text;html=1;align=center;verticalAlign=middle;whiteSpace=wrap;rounded=0;" parent="1" vertex="1">
          <mxGeometry x="390" y="-50" width="420" height="60" as="geometry" />
        </mxCell>
        <mxCell id="3mzseKC1MjaG1VJGfsOA-10" value="Alternative" style="shape=umlFrame;whiteSpace=wrap;html=1;pointerEvents=0;recursiveResize=0;container=1;collapsible=0;width=170;" parent="1" vertex="1">
          <mxGeometry x="75" y="1460" width="1175" height="470" as="geometry" />
        </mxCell>
        <mxCell id="3mzseKC1MjaG1VJGfsOA-11" value="Result != 0" style="text;html=1;" parent="3mzseKC1MjaG1VJGfsOA-10" vertex="1">
          <mxGeometry width="100" height="20" relative="1" as="geometry">
            <mxPoint x="20" y="40" as="offset" />
          </mxGeometry>
        </mxCell>
        <mxCell id="3mzseKC1MjaG1VJGfsOA-12" value="Result == 0" style="line;strokeWidth=1;dashed=1;labelPosition=center;verticalLabelPosition=bottom;align=left;verticalAlign=top;spacingLeft=20;spacingTop=15;html=1;whiteSpace=wrap;" parent="3mzseKC1MjaG1VJGfsOA-10" vertex="1">
          <mxGeometry y="345" width="1170" height="10" as="geometry" />
        </mxCell>
        <mxCell id="3mzseKC1MjaG1VJGfsOA-13" value="showError()" style="html=1;verticalAlign=bottom;endArrow=open;dashed=1;endSize=8;curved=0;rounded=0;" parent="1" edge="1">
          <mxGeometry x="-0.0003" relative="1" as="geometry">
            <mxPoint x="595" y="1836" as="sourcePoint" />
            <mxPoint x="400" y="1836" as="targetPoint" />
            <mxPoint as="offset" />
          </mxGeometry>
        </mxCell>
        <mxCell id="el6UBPlnHFDRlVmJdhHZ-1" value="&lt;strong data-end=&quot;1178&quot; data-start=&quot;1161&quot;&gt;:ViewFriendsScreen&lt;/strong&gt;" style="shape=umlLifeline;perimeter=lifelinePerimeter;whiteSpace=wrap;html=1;container=1;dropTarget=0;collapsible=0;recursiveResize=0;outlineConnect=0;portConstraint=eastwest;newEdgeStyle={&quot;curved&quot;:0,&quot;rounded&quot;:0};fillColor=#dae8fc;strokeColor=#6c8ebf;" vertex="1" parent="1">
          <mxGeometry x="710" y="50" width="100" height="710" as="geometry" />
        </mxCell>
        <mxCell id="el6UBPlnHFDRlVmJdhHZ-2" value="" style="html=1;points=[[0,0,0,0,5],[0,1,0,0,-5],[1,0,0,0,5],[1,1,0,0,-5]];perimeter=orthogonalPerimeter;outlineConnect=0;targetShapes=umlLifeline;portConstraint=eastwest;newEdgeStyle={&quot;curved&quot;:0,&quot;rounded&quot;:0};" vertex="1" parent="el6UBPlnHFDRlVmJdhHZ-1">
          <mxGeometry x="45" y="80" width="10" height="600" as="geometry" />
        </mxCell>
        <mxCell id="el6UBPlnHFDRlVmJdhHZ-5" value="getAutocompleteSuggestions(query)" style="html=1;verticalAlign=bottom;startArrow=oval;startFill=1;endArrow=block;startSize=8;curved=0;rounded=0;" edge="1" parent="1" source="vn2kPDJeqpM3JR5kkhpo-2" target="vn2kPDJeqpM3JR5kkhpo-5">
          <mxGeometry width="60" relative="1" as="geometry">
            <mxPoint x="410" y="240" as="sourcePoint" />
            <mxPoint x="470" y="250" as="targetPoint" />
            <Array as="points">
              <mxPoint x="500" y="250" />
            </Array>
          </mxGeometry>
        </mxCell>
      </root>
    </mxGraphModel>
  </diagram>
</mxfile>
